#!OML:ASF F:\VICON\USERDATA\INSTALL\Justin_Nancy\Justin_Nancy.ASF
:FULLY-SPECIFIED
:DEGREES
296
root -0.0780962 16.9255 46.4743 -2.75646 -6.18256 4.66464
lowerback 5.42251 0.783079 -3.47986
upperback 0.749312 0.854309 0.671347
thorax -2.32964 0.458086 2.58284
lowerneck -16.7982 -1.8788 -9.69913
upperneck 21.3783 -0.95354 4.09614
head 9.61885 -0.771932 2.91928
rclavicle 4.19933e-015 -7.95139e-016
rhumerus -24.5886 -13.2733 -81.2471
rradius 32.1023
rwrist 7.30293
rhand -14.9777 10.226
rfingers 7.12502
rthumb 11.1862 -19.4558
lclavicle 4.19933e-015 -7.95139e-016
lhumerus -36.6225 10.6029 84.0386
lradius 20.4207
lwrist -17.4157
lhand -11.6196 25.3118
lfingers 7.12502
lthumb 14.4235 54.7906
rfemur -15.7838 -0.847223 16.1628
rtibia 72.7359
rfoot -0.379856 5.72047
rtoes -5.40334
lfemur -15.547 -0.0934278 -28.608
ltibia 35.8123
lfoot -13.5858 3.20782
ltoes -0.0581732
297
root -0.0889873 16.9434 46.7042 -2.65227 -5.85407 4.72925
lowerback 5.32952 0.596307 -3.61205
upperback 0.55699 0.599854 0.715456
thorax -2.45979 0.338008 2.72191
lowerneck -16.3625 -1.77894 -9.66969
upperneck 21.4924 -0.83293 3.939
head 9.56883 -0.737442 2.87553
rclavicle -8.75895e-015 1.11319e-014
rhumerus -25.3753 -13.7032 -80.9675
rradius 31.3296
rwrist 7.75693
rhand -14.746 10.4609
rfingers 7.12502
rthumb 11.4097 -19.2087
lclavicle -8.75895e-015 1.11319e-014
lhumerus -36.4469 9.86375 84.3046
lradius 20.752
lwrist -17.0838
lhand -10.6224 26.1021
lfingers 7.12502
lthumb 15.3842 55.5097
rfemur -17.4477 -1.50722 16.2698
rtibia 72.5378
rfoot -2.31405 5.20308
rtoes -5.07609
lfemur -14.7547 -0.436178 -28.7683
ltibia 35.5972
lfoot -14.1649 3.48683
ltoes 0.593449
298
root -0.103039 16.9525 46.92 -2.48767 -5.67334 4.83906
lowerback 4.78389 0.543792 -3.74329
upperback 0.78827 0.547009 0.706785
thorax -1.91294 0.298621 2.79459
lowerneck -16.4433 -1.87534 -9.6871
upperneck 21.348 -0.93949 3.88345
head 9.54177 -0.790609 2.84274
rclavicle -1.71452e-015 -1.19271e-014
rhumerus -25.6071 -14.5869 -80.7587
rradius 30.7769
rwrist 8.25139
rhand -14.6377 11.0744
rfingers 7.12502
rthumb 11.5142 -18.5893
lclavicle -1.71452e-015 -1.19271e-014
lhumerus -35.4133 9.38068 84.515
lradius 21.0239
lwrist -17.0603
lhand -11.0489 25.7719
lfingers 7.12502
lthumb 14.9734 55.2106
rfemur -19.3543 -1.91168 16.4051
rtibia 72.2247
rfoot -4.01316 4.67361
rtoes -6.15803
lfemur -14.0853 -0.828638 -28.9585
ltibia 35.4351
lfoot -14.6646 3.83278
ltoes 1.4598
299
root -0.113988 16.9496 47.1348 -2.38041 -5.48513 4.92773
lowerback 5.2891 0.414497 -3.96979
upperback 0.348835 0.336412 0.765562
thorax -2.63506 0.217727 2.99491
lowerneck -16.3056 -2.0172 -9.90017
upperneck 21.7195 -1.12308 3.98283
head 9.66395 -0.892681 2.89523
rclavicle 6.28657e-015 1.35174e-014
rhumerus -26.8881 -14.6756 -80.4072
rradius 30.3455
rwrist 8.3161
rhand -14.5073 11.3316
rfingers 7.12502
rthumb 11.64 -18.3251
lclavicle 6.28657e-015 1.35174e-014
lhumerus -35.5776 9.03829 84.4744
lradius 21.6759
lwrist -16.9262
lhand -11.1673 25.6862
lfingers 7.12502
lthumb 14.8593 55.1333
rfemur -21.1351 -2.21805 16.5459
rtibia 71.7601
rfoot -5.84265 3.7479
rtoes -6.84263
lfemur -13.2785 -1.23271 -29.1637
ltibia 35.2651
lfoot -15.0486 4.00754
ltoes 2.62189
300
root -0.107249 16.9367 47.3677 -2.38197 -4.98451 5.27297
lowerback 4.94459 0.178254 -4.06707
upperback 0.643544 0.0319148 0.611526
thorax -2.11276 0.0501131 2.91201
lowerneck -16.364 -1.77074 -9.66245
upperneck 21.413 -0.816163 3.90873
head 9.53988 -0.73077 2.86441
rclavicle 1.98785e-016 3.18055e-015
rhumerus -26.7711 -15.0223 -80.4498
rradius 29.4481
rwrist 8.39674
rhand -14.5355 11.514
rfingers 7.12502
rthumb 11.6127 -18.1442
lclavicle 1.98785e-016 3.18055e-015
lhumerus -34.5209 8.76579 84.5179
lradius 22.1962
lwrist -16.9431
lhand -10.5358 25.9779
lfingers 7.12502
lthumb 15.4676 55.3791
rfemur -22.4466 -2.95102 16.1807
rtibia 71.0703
rfoot -7.6923 2.84255
rtoes -6.96395
lfemur -12.1216 -1.73594 -29.7631
ltibia 35.0332
lfoot -15.4188 3.96617
ltoes 3.89466
301
root -0.0987676 16.9227 47.6024 -2.35432 -4.46378 5.88959
lowerback 5.13701 -0.00240255 -4.43776
upperback 0.463642 -0.246093 0.433308
thorax -2.38317 -0.0767696 2.95662
lowerneck -16.6116 -1.90662 -9.84502
upperneck 21.7291 -0.960173 4.02679
head 9.71068 -0.805401 2.92368
rclavicle -5.96354e-016 3.18055e-015
rhumerus -27.6505 -15.4181 -80.1228
rradius 29.0088
rwrist 8.50426
rhand -14.4928 11.7928
rfingers 7.12502
rthumb 11.6539 -17.8631
lclavicle -5.96354e-016 3.18055e-015
lhumerus -34.1327 7.86485 84.7838
lradius 22.7274
lwrist -16.3589
lhand -9.50379 25.9069
lfingers 7.12502
lthumb 16.4614 55.2285
rfemur -23.7829 -3.73 15.5001
rtibia 70.2115
rfoot -9.31651 1.76139
rtoes -8.135
lfemur -11.0283 -2.24595 -30.6803
ltibia 34.7874
lfoot -16.0977 4.20558
ltoes 3.96998
302
root -0.114266 16.9234 47.8343 -2.28486 -4.32347 6.10703
lowerback 5.2551 -0.0460021 -4.76673
upperback 0.371641 -0.33053 0.465323
thorax -2.53555 -0.109885 3.18219
lowerneck -16.7371 -1.89444 -9.92853
upperneck 21.8581 -0.914245 4.05658
head 9.77717 -0.789896 2.95674
rclavicle 8.69683e-016 -1.59028e-015
rhumerus -28.8059 -15.305 -79.7607
rradius 29.1364
rwrist 8.20134
rhand -14.3428 12.0171
rfingers 7.12502
rthumb 11.7986 -17.6306
lclavicle 8.69683e-016 -1.59028e-015
lhumerus -33.531 6.65864 85.1993
lradius 23.1189
lwrist -15.4005
lhand -9.14039 25.7693
lfingers 7.12502
lthumb 16.8113 55.0616
rfemur -25.2509 -3.70602 15.5573
rtibia 69.0737
rfoot -10.4047 0.308126
rtoes -8.86815
lfemur -10.1653 -2.42046 -31.0174
ltibia 34.5221
lfoot -17.0411 4.82734
ltoes 2.97889
303
root -0.129713 16.9121 48.0599 -2.15509 -4.11127 6.16518
lowerback 5.20606 -0.191457 -4.92176
upperback 0.431502 -0.528174 0.509453
thorax -2.42652 -0.210462 3.32863
lowerneck -17.186 -1.80263 -9.75606
upperneck 22.0151 -0.740194 3.87764
head 9.90228 -0.71632 2.8916
rclavicle 9.01985e-015 7.95139e-016
rhumerus -29.4948 -14.7561 -79.7464
rradius 29.1326
rwrist 7.74251
rhand -14.3717 11.9588
rfingers 7.12502
rthumb 11.7707 -17.6905
lclavicle 9.01985e-015 7.95139e-016
lhumerus -32.7105 5.61489 85.4893
lradius 23.5701
lwrist -14.2679
lhand -9.27098 25.7305
lfingers 7.12502
lthumb 16.6856 55.0334
rfemur -26.613 -3.69706 15.7535
rtibia 67.6848
rfoot -11.1788 -0.860803
rtoes -9.15034
lfemur -9.27501 -2.64808 -31.1871
ltibia 34.1808
lfoot -17.6442 5.31402
ltoes 2.32586
304
root -0.142763 16.8915 48.2926 -1.98198 -3.93077 6.63446
lowerback 5.05577 -0.311166 -5.55964
upperback 0.455881 -0.714737 0.511071
thorax -2.29198 -0.301363 3.70061
lowerneck -17.551 -1.75068 -9.72094
upperneck 22.0038 -0.611847 3.77803
head 9.95689 -0.663031 2.86844
rclavicle 7.92654e-015 -9.54166e-015
rhumerus -29.9842 -14.5003 -79.6475
rradius 28.9267
rwrist 7.60953
rhand -14.4072 11.6592
rfingers 7.12502
rthumb 11.7365 -17.992
lclavicle 7.92654e-015 -9.54166e-015
lhumerus -31.9675 4.90082 85.7307
lradius 24.2402
lwrist -13.2014
lhand -9.12055 25.8737
lfingers 7.12502
lthumb 16.8304 55.1643
rfemur -27.7731 -3.74609 15.4156
rtibia 66.0178
rfoot -12.0467 -1.86434
rtoes -10.6204
lfemur -8.30509 -2.81031 -31.8361
ltibia 33.7883
lfoot -18.2668 5.7699
ltoes 2.1684
305
root -0.155465 16.8936 48.5394 -2.02722 -3.74528 7.06614
lowerback 4.34871 -0.3367 -5.8513
upperback 1.03745 -0.704966 0.336668
thorax -1.29388 -0.337759 3.6699
lowerneck -18.1321 -1.97301 -9.90014
upperneck 21.5835 -0.879133 4.08268
head 9.93683 -0.751049 2.96464
rclavicle 1.2275e-014 -9.54166e-015
rhumerus -29.9618 -15.1816 -79.5865
rradius 28.6653
rwrist 7.95223
rhand -14.0986 12.2547
rfingers 7.12502
rthumb 12.034 -17.3793
lclavicle 1.2275e-014 -9.54166e-015
lhumerus -30.4714 3.92414 85.8687
lradius 24.8436
lwrist -12.6255
lhand -8.63504 26.2818
lfingers 7.12502
lthumb 17.2977 55.532
rfemur -28.5037 -3.80177 15.0209
rtibia 64.0507
rfoot -13.0245 -2.8524
rtoes -12.538
lfemur -6.99823 -2.77892 -32.4314
ltibia 33.3182
lfoot -18.818 5.7088
ltoes 3.61009
306
root -0.178765 16.9155 48.7701 -1.86479 -3.80614 6.62359
lowerback 4.71936 -0.361469 -5.59629
upperback 0.570131 -0.758975 0.545062
thorax -1.97951 -0.334725 3.75393
lowerneck -17.2301 -1.94678 -10.1488
upperneck 21.3753 -0.92492 4.29384
head 9.70045 -0.770138 3.06851
rclavicle -7.05686e-015 4.77083e-015
rhumerus -31.7572 -14.8058 -79.0755
rradius 28.5577
rwrist 8.0155
rhand -13.8958 13.7026
rfingers 7.12502
rthumb 12.2296 -15.9199
lclavicle -7.05686e-015 4.77083e-015
lhumerus -30.8442 3.29967 85.8221
lradius 25.7596
lwrist -12.2257
lhand -8.40009 26.3518
lfingers 7.12502
lthumb 17.5238 55.582
rfemur -29.6014 -3.17392 15.6979
rtibia 61.8423
rfoot -13.329 -4.02734
rtoes -13.2154
lfemur -5.95952 -2.42529 -31.9848
ltibia 32.5599
lfoot -18.7325 5.70193
ltoes 2.77087
